<svg width="33" height="35" viewBox="0 0 33 35" fill="none" xmlns="http://www.w3.org/2000/svg">
<path d="M16.5 2.91675C12.8978 2.92657 9.4426 4.43273 6.875 7.11237V4.37508C6.875 3.98831 6.73013 3.61737 6.47227 3.34388C6.21441 3.07039 5.86467 2.91675 5.5 2.91675C5.13533 2.91675 4.78559 3.07039 4.52773 3.34388C4.26987 3.61737 4.125 3.98831 4.125 4.37508V10.9376C4.125 11.3244 4.26987 11.6953 4.52773 11.9688C4.78559 12.2423 5.13533 12.3959 5.5 12.3959H11.6875C12.0522 12.3959 12.4019 12.2423 12.6598 11.9688C12.9176 11.6953 13.0625 11.3244 13.0625 10.9376C13.0625 10.5508 12.9176 10.1799 12.6598 9.90638C12.4019 9.63289 12.0522 9.47925 11.6875 9.47925H8.54975C9.80359 8.08112 11.3651 7.03504 13.0942 6.43487C14.8232 5.83471 16.6657 5.69923 18.4563 6.04061C20.2469 6.38199 21.9296 7.18953 23.3534 8.39078C24.7771 9.59203 25.8974 11.1494 26.6137 12.9231C27.3299 14.6968 27.6198 16.6314 27.4572 18.5533C27.2946 20.4751 26.6847 22.3241 25.6822 23.9342C24.6797 25.5444 23.3159 26.8654 21.7133 27.7787C20.1106 28.6919 18.3193 29.1689 16.5 29.1667C16.1353 29.1667 15.7856 29.3204 15.5277 29.5939C15.2699 29.8674 15.125 30.2383 15.125 30.6251C15.125 31.0119 15.2699 31.3828 15.5277 31.6563C15.7856 31.9298 16.1353 32.0834 16.5 32.0834C20.1467 32.0834 23.6441 30.547 26.2227 27.8121C28.8013 25.0772 30.25 21.3678 30.25 17.5001C30.25 13.6323 28.8013 9.92301 26.2227 7.18811C23.6441 4.4532 20.1467 2.91675 16.5 2.91675Z" fill="#3354F4"/>
<path d="M19.25 18.9584H16.5C16.1353 18.9584 15.7856 18.8048 15.5277 18.5313C15.2699 18.2578 15.125 17.8869 15.125 17.5001V13.1251C15.125 12.7383 15.2699 12.3674 15.5277 12.0939C15.7856 11.8204 16.1353 11.6667 16.5 11.6667C16.8647 11.6667 17.2144 11.8204 17.4723 12.0939C17.7301 12.3674 17.875 12.7383 17.875 13.1251V16.0417H19.25C19.6147 16.0417 19.9644 16.1954 20.2223 16.4689C20.4801 16.7424 20.625 17.1133 20.625 17.5001C20.625 17.8869 20.4801 18.2578 20.2223 18.5313C19.9644 18.8048 19.6147 18.9584 19.25 18.9584Z" fill="#3354F4"/>
<path opacity="0.5" d="M16.4999 5.83325C15.0112 5.83936 13.5391 6.1656 12.1726 6.79224C10.8061 7.41888 9.57365 8.33292 8.54969 9.47908H11.6874C12.0521 9.47908 12.4018 9.63273 12.6597 9.90622C12.9176 10.1797 13.0624 10.5506 13.0624 10.9374C13.0624 11.3242 12.9176 11.6951 12.6597 11.9686C12.4018 12.2421 12.0521 12.3958 11.6874 12.3958H5.49994C5.16688 12.3933 4.84627 12.2612 4.59891 12.0247C4.35155 11.7881 4.19464 11.4635 4.15794 11.1124C3.12815 13.3332 2.64949 15.7959 2.76723 18.2676C2.88497 20.7393 3.59521 23.1383 4.83079 25.2378C6.06637 27.3372 7.78645 29.0677 9.82836 30.2655C11.8703 31.4634 14.1665 32.089 16.4999 32.0833C16.1353 32.0833 15.7855 31.9296 15.5277 31.6561C15.2698 31.3826 15.1249 31.0117 15.1249 30.6249C15.1249 30.2381 15.2698 29.8672 15.5277 29.5937C15.7855 29.3202 16.1353 29.1666 16.4999 29.1666C19.4173 29.1666 22.2152 27.9374 24.2781 25.7495C26.341 23.5616 27.4999 20.5941 27.4999 17.4999C27.4999 14.4057 26.341 11.4383 24.2781 9.25034C22.2152 7.06242 19.4173 5.83325 16.4999 5.83325ZM19.2499 18.9583H16.4999C16.1353 18.9583 15.7855 18.8046 15.5277 18.5311C15.2698 18.2576 15.1249 17.8867 15.1249 17.4999V13.1249C15.1249 12.7381 15.2698 12.3672 15.5277 12.0937C15.7855 11.8202 16.1353 11.6666 16.4999 11.6666C16.8646 11.6666 17.2143 11.8202 17.4722 12.0937C17.7301 12.3672 17.8749 12.7381 17.8749 13.1249V16.0416H19.2499C19.6146 16.0416 19.9643 16.1952 20.2222 16.4687C20.4801 16.7422 20.6249 17.1131 20.6249 17.4999C20.6249 17.8867 20.4801 18.2576 20.2222 18.5311C19.9643 18.8046 19.6146 18.9583 19.2499 18.9583Z" fill="#C0CBFB"/>
</svg>
