<svg width="27" height="27" viewBox="0 0 27 27" fill="none" xmlns="http://www.w3.org/2000/svg">
<path d="M12.7007 0.499998L12.6993 0.500002C9.57297 0.508439 6.55263 1.53176 4.13529 3.38632V2.24664C4.13529 1.77419 3.93666 1.32708 3.59299 1.00193L3.59299 1.00193C3.25026 0.677668 2.79105 0.5 2.31764 0.5C1.84424 0.5 1.38503 0.677668 1.0423 1.00193C0.698627 1.32708 0.5 1.77419 0.5 2.24664V7.85654C0.5 8.32899 0.698627 8.7761 1.0423 9.10125C1.38503 9.42551 1.84424 9.60318 2.31764 9.60318H8.24704C8.72045 9.60318 9.17966 9.42551 9.52239 9.10125C9.86606 8.7761 10.0647 8.32899 10.0647 7.85654C10.0647 7.38408 9.86606 6.93698 9.52239 6.61182C9.17966 6.28756 8.72045 6.10989 8.24704 6.10989H6.41358C7.35544 5.38901 8.43168 4.8322 9.59231 4.47075C11.1767 3.97731 12.8668 3.86411 14.5097 4.14175C16.1526 4.4194 17.6945 5.07876 18.9973 6.05833C20.3 7.0378 21.3221 8.3061 21.9743 9.7473C22.6264 11.1883 22.8891 12.7586 22.74 14.3174C22.591 15.8764 22.0345 17.3779 21.1183 18.6867C20.202 19.9957 18.954 21.0715 17.4847 21.8149C16.0152 22.5584 14.3717 22.9454 12.7024 22.9396H12.7007C12.2273 22.9396 11.7681 23.1172 11.4253 23.4415C11.0817 23.7667 10.883 24.2138 10.883 24.6862C10.883 25.1587 11.0817 25.6058 11.4253 25.9309C11.7681 26.2552 12.2273 26.4329 12.7007 26.4329C16.3192 26.4329 19.7948 25.0731 22.3615 22.6447C24.9291 20.2155 26.3771 16.9146 26.3771 13.4664C26.3771 10.0183 24.9291 6.7174 22.3615 4.28813C19.7948 1.85975 16.3192 0.5 12.7007 0.499998ZM12.7007 7.97986C12.2273 7.97986 11.7681 8.15753 11.4253 8.48179C11.0817 8.80694 10.883 9.25404 10.883 9.7265V13.4664C10.883 13.9389 11.0817 14.386 11.4253 14.7111C11.7681 15.0354 12.2273 15.2131 12.7007 15.2131H15.336C15.8094 15.2131 16.2686 15.0354 16.6113 14.7111C16.955 14.386 17.1536 13.9389 17.1536 13.4664C17.1536 12.994 16.955 12.5469 16.6113 12.2217C16.2686 11.8975 15.8094 11.7198 15.336 11.7198H14.5183V9.7265C14.5183 9.25405 14.3197 8.80694 13.976 8.48179C13.6333 8.15753 13.1741 7.97986 12.7007 7.97986Z" fill="#A3AED0" stroke="white"/>
</svg>
