<svg width="24" height="23" viewBox="0 0 24 23" fill="none" xmlns="http://www.w3.org/2000/svg">
<rect width="24" height="23" fill="#994444"/>
<rect width="1440" height="850" transform="translate(-129 -207)" fill="#F0F3F6"/>
<g filter="url(#filter0_d_0_1)">
<rect x="-21" y="124" width="154" height="64" rx="15" transform="rotate(-90 -21 124)" fill="white"/>
</g>
<mask id="path-2-inside-1_0_1" fill="white">
<path d="M6.34108 0.721436L4.1058 0.721436C1.52933 0.721436 0.176392 2.00147 0.176392 4.42797L0.176392 6.54281C0.176392 8.96932 1.52933 10.2494 4.09403 10.2494H6.32932C8.89402 10.2494 10.247 8.96932 10.247 6.54281V4.42797C10.2587 2.00147 8.90578 0.721436 6.34108 0.721436Z"/>
</mask>
<path d="M6.34108 0.721436L4.1058 0.721436C1.52933 0.721436 0.176392 2.00147 0.176392 4.42797L0.176392 6.54281C0.176392 8.96932 1.52933 10.2494 4.09403 10.2494H6.32932C8.89402 10.2494 10.247 8.96932 10.247 6.54281V4.42797C10.2587 2.00147 8.90578 0.721436 6.34108 0.721436Z" fill="white" stroke="#3354F4" stroke-width="6.4" mask="url(#path-2-inside-1_0_1)"/>
<mask id="path-3-inside-2_0_1" fill="white">
<path d="M19.7881 0.721436L17.5528 0.721436C14.9881 0.721436 13.6352 2.00147 13.6352 4.42797V6.54281C13.6352 8.96932 14.9881 10.2494 17.5528 10.2494H19.7881C22.3528 10.2494 23.7058 8.96932 23.7058 6.54281V4.42797C23.7058 2.00147 22.3528 0.721436 19.7881 0.721436Z"/>
</mask>
<path d="M19.7881 0.721436L17.5528 0.721436C14.9881 0.721436 13.6352 2.00147 13.6352 4.42797V6.54281C13.6352 8.96932 14.9881 10.2494 17.5528 10.2494H19.7881C22.3528 10.2494 23.7058 8.96932 23.7058 6.54281V4.42797C23.7058 2.00147 22.3528 0.721436 19.7881 0.721436Z" fill="white" stroke="#3354F4" stroke-width="6.4" mask="url(#path-3-inside-2_0_1)"/>
<mask id="path-4-inside-3_0_1" fill="white">
<path d="M19.7881 13.4429H17.5528C14.9881 13.4429 13.6352 14.7229 13.6352 17.1494V19.2642C13.6352 21.6908 14.9881 22.9708 17.5528 22.9708H19.7881C22.3528 22.9708 23.7058 21.6908 23.7058 19.2642V17.1494C23.7058 14.7229 22.3528 13.4429 19.7881 13.4429Z"/>
</mask>
<path d="M19.7881 13.4429H17.5528C14.9881 13.4429 13.6352 14.7229 13.6352 17.1494V19.2642C13.6352 21.6908 14.9881 22.9708 17.5528 22.9708H19.7881C22.3528 22.9708 23.7058 21.6908 23.7058 19.2642V17.1494C23.7058 14.7229 22.3528 13.4429 19.7881 13.4429Z" fill="white" stroke="#3354F4" stroke-width="6.4" mask="url(#path-4-inside-3_0_1)"/>
<mask id="path-5-inside-4_0_1" fill="white">
<path d="M6.34108 13.4429H4.1058C1.52933 13.4429 0.176392 14.7229 0.176392 17.1494L0.176392 19.2642C0.176392 21.7019 1.52933 22.9819 4.09403 22.9819H6.32932C8.89402 22.9819 10.247 21.7019 10.247 19.2754V17.1605C10.2587 14.7229 8.90578 13.4429 6.34108 13.4429Z"/>
</mask>
<path d="M6.34108 13.4429H4.1058C1.52933 13.4429 0.176392 14.7229 0.176392 17.1494L0.176392 19.2642C0.176392 21.7019 1.52933 22.9819 4.09403 22.9819H6.32932C8.89402 22.9819 10.247 21.7019 10.247 19.2754V17.1605C10.2587 14.7229 8.90578 13.4429 6.34108 13.4429Z" fill="white" stroke="#3354F4" stroke-width="6.4" mask="url(#path-5-inside-4_0_1)"/>
<defs>
<filter id="filter0_d_0_1" x="-49" y="-50" width="120" height="210" filterUnits="userSpaceOnUse" color-interpolation-filters="sRGB">
<feFlood flood-opacity="0" result="BackgroundImageFix"/>
<feColorMatrix in="SourceAlpha" type="matrix" values="0 0 0 0 0 0 0 0 0 0 0 0 0 0 0 0 0 0 127 0" result="hardAlpha"/>
<feOffset dy="8"/>
<feGaussianBlur stdDeviation="14"/>
<feColorMatrix type="matrix" values="0 0 0 0 0.283212 0 0 0 0 0.350184 0 0 0 0 0.400085 0 0 0 0.1006 0"/>
<feBlend mode="normal" in2="BackgroundImageFix" result="effect1_dropShadow_0_1"/>
<feBlend mode="normal" in="SourceGraphic" in2="effect1_dropShadow_0_1" result="shape"/>
</filter>
</defs>
</svg>
