<svg width="31" height="31" viewBox="0 0 31 31" fill="none" xmlns="http://www.w3.org/2000/svg">
<path d="M12.4201 7.14588H12.4201V7.15322V9.52822C12.4201 10.6224 12.1345 11.1948 11.8293 11.5C11.5241 11.8052 10.9517 12.0907 9.85757 12.0907H7.48257C6.38844 12.0907 5.81602 11.8052 5.51081 11.5C5.20561 11.1948 4.92007 10.6224 4.92007 9.52822V7.15322C4.92007 6.05911 5.20556 5.4876 5.51111 5.18273C5.81725 4.87727 6.39282 4.59072 7.49507 4.59072H9.87007C10.9648 4.59072 11.536 4.87653 11.839 5.1802C12.1414 5.48324 12.4251 6.05312 12.4201 7.14588Z" fill="white" stroke="#A3AED0" stroke-width="3.2"/>
<path d="M21.7824 4.59072H24.1574C25.2515 4.59072 25.8239 4.87626 26.1291 5.18147C26.4343 5.48667 26.7199 6.05909 26.7199 7.15322V9.52822C26.7199 10.6224 26.4343 11.1948 26.1291 11.5C25.8239 11.8052 25.2515 12.0907 24.1574 12.0907H21.7824C20.6882 12.0907 20.1158 11.8052 19.8106 11.5C19.5054 11.1948 19.2199 10.6224 19.2199 9.52822V7.15322C19.2199 6.05909 19.5054 5.48667 19.8106 5.18147C20.1158 4.87626 20.6882 4.59072 21.7824 4.59072Z" fill="white" stroke="#A3AED0" stroke-width="3.2"/>
<path d="M21.7824 18.8771H24.1574C25.2515 18.8771 25.8239 19.1626 26.1291 19.4678C26.4343 19.7731 26.7199 20.3455 26.7199 21.4396V23.8146C26.7199 24.9087 26.4343 25.4812 26.1291 25.7864C25.8239 26.0916 25.2515 26.3771 24.1574 26.3771H21.7824C20.6882 26.3771 20.1158 26.0916 19.8106 25.7864C19.5054 25.4811 19.2199 24.9087 19.2199 23.8146V21.4396C19.2199 20.3455 19.5054 19.7731 19.8106 19.4678C20.1158 19.1626 20.6882 18.8771 21.7824 18.8771Z" fill="white" stroke="#A3AED0" stroke-width="3.2"/>
<path d="M12.4201 21.4448H12.4201V21.4521V23.8271C12.4201 24.9212 12.1345 25.4936 11.8293 25.7989C11.5241 26.1041 10.9517 26.3896 9.85757 26.3896H7.48257C6.38846 26.3896 5.81695 26.1041 5.51207 25.7986C5.20662 25.4924 4.92007 24.9169 4.92007 23.8146V21.4396C4.92007 20.3455 5.20556 19.774 5.51111 19.4691C5.81725 19.1637 6.39282 18.8771 7.49507 18.8771H9.87007C10.9648 18.8771 11.5351 19.1629 11.8377 19.4669C12.1404 19.7709 12.4251 20.3439 12.4201 21.4448Z" fill="white" stroke="#A3AED0" stroke-width="3.2"/>
</svg>
