<svg width="38" height="38" viewBox="0 0 38 38" fill="none" xmlns="http://www.w3.org/2000/svg">
<circle opacity="0.5" cx="19" cy="19" r="19" fill="#E6EAF5"/>
<path d="M23.1969 29.71V27.2978C23.1969 26.0183 22.7395 24.7912 21.9252 23.8864C21.1109 22.9817 20.0065 22.4734 18.855 22.4734H12.3421C11.1905 22.4734 10.0861 22.9817 9.27185 23.8864C8.45758 24.7912 8.00012 26.0183 8.00012 27.2978V29.71" stroke="#0043FF" stroke-width="2" stroke-linecap="round" stroke-linejoin="round"/>
<path d="M15.5977 17.6489C17.9957 17.6489 19.9397 15.4889 19.9397 12.8244C19.9397 10.16 17.9957 8 15.5977 8C13.1997 8 11.2558 10.16 11.2558 12.8244C11.2558 15.4889 13.1997 17.6489 15.5977 17.6489Z" stroke="#0043FF" stroke-width="2" stroke-linecap="round" stroke-linejoin="round"/>
<path d="M29.7102 29.7099V27.2977C29.7095 26.2287 29.3893 25.1903 28.7999 24.3455C28.2105 23.5007 27.3852 22.8973 26.4537 22.63M23.1973 8.15674C24.1312 8.42245 24.9591 9.02598 25.5502 9.8722C26.1414 10.7184 26.4622 11.7592 26.4622 12.8304C26.4622 13.9016 26.1414 14.9424 25.5502 15.7886C24.9591 16.6348 24.1312 17.2384 23.1973 17.5041" stroke="#0043FF" stroke-width="2" stroke-linecap="round" stroke-linejoin="round"/>
</svg>
