<svg width="38" height="38" viewBox="0 0 38 38" fill="none" xmlns="http://www.w3.org/2000/svg">
<circle opacity="0.5" cx="19" cy="19" r="19" fill="#E6EAF5"/>
<path d="M19.9952 27.1428C18.7285 27.1428 17.5412 26.9016 16.4331 26.419C15.3251 25.9365 14.36 25.2842 13.5379 24.462C12.7158 23.6405 12.0635 22.6754 11.5809 21.5668C11.0984 20.4582 10.8571 19.2708 10.8571 18.0048C10.8571 15.8032 11.5583 13.8615 12.9607 12.1799C14.3631 10.4982 16.15 9.45415 18.3214 9.04761C18.05 10.5405 18.1329 11.9995 18.5702 13.4248C19.0075 14.8501 19.7615 16.0978 20.8321 17.1678C21.9027 18.2385 23.1507 18.9924 24.576 19.4298C26.0013 19.8671 27.4601 19.95 28.9523 19.6786C28.5603 21.85 27.5198 23.6369 25.8309 25.0393C24.142 26.4417 22.1968 27.1428 19.9952 27.1428ZM19.9952 25.3333C21.3222 25.3333 22.5511 25.0016 23.6821 24.3381C24.8131 23.6746 25.7027 22.7623 26.3511 21.6012C25.0543 21.4805 23.8254 21.1524 22.6642 20.6168C21.5031 20.0812 20.4627 19.3538 19.5428 18.4345C18.623 17.5147 17.8916 16.4742 17.3488 15.3131C16.8059 14.152 16.4817 12.923 16.3761 11.6262C15.215 12.2746 14.3067 13.1682 13.651 14.307C12.9954 15.4458 12.6672 16.6784 12.6666 18.0048C12.6666 20.0405 13.3793 21.771 14.8046 23.1963C16.2299 24.6216 17.9601 25.3339 19.9952 25.3333Z" fill="#0043FF"/>
</svg>
