<svg width="38" height="38" viewBox="0 0 38 38" fill="none" xmlns="http://www.w3.org/2000/svg">
<circle opacity="0.5" cx="19" cy="19" r="19" fill="#E6EAF5"/>
<path d="M21.5688 19.7596H22.9256V22.3105L25.1328 23.586L24.4544 24.762L21.5688 23.0975V19.7596ZM24.4001 16.4398C23.586 14.1602 21.415 12.5229 18.855 12.5229C16.4126 12.5229 14.3321 14.0155 13.4275 16.1413C10.9309 16.1413 8.90459 18.1675 8.90459 20.6642C8.90459 23.1608 10.9309 25.1871 13.4275 25.1871H16.7564C17.7785 27.3219 19.9495 28.8054 22.4733 28.8054C25.9741 28.8054 28.8054 25.9741 28.8054 22.4734C28.8054 19.6511 26.9601 17.263 24.4001 16.4398ZM13.4275 23.3779C11.9259 23.3779 10.7138 22.1658 10.7138 20.6642C10.7138 19.1626 11.9259 17.9504 13.4275 17.9504C13.7622 17.9504 14.0878 18.0138 14.3864 18.1223C14.561 17.0633 15.1061 16.1008 15.9247 15.4066C16.7432 14.7124 17.7817 14.3315 18.855 14.3321C20.3295 14.3321 21.6321 15.0467 22.4733 16.1413C18.9636 16.1413 16.1413 18.9817 16.1413 22.4734C16.1413 22.7809 16.1684 23.0794 16.2136 23.3779H13.4275ZM22.4733 26.9963C19.9767 26.9963 17.9504 24.97 17.9504 22.4734C17.9504 19.9767 19.9767 17.9504 22.4733 17.9504C24.97 17.9504 26.9963 19.9767 26.9963 22.4734C26.9963 24.97 24.97 26.9963 22.4733 26.9963Z" fill="#0043FF"/>
</svg>
