<svg width="38" height="38" viewBox="0 0 38 38" fill="none" xmlns="http://www.w3.org/2000/svg">
<circle opacity="0.5" cx="19" cy="19" r="19" fill="#E6EAF5"/>
<g clip-path="url(#clip0_9_1057)">
<path d="M26.0952 17.6571C26.6464 17.9186 27.1447 18.2472 27.5899 18.643C28.0351 19.0387 28.4167 19.4875 28.7347 19.9893C29.0528 20.491 29.293 21.0281 29.4556 21.6006C29.6181 22.173 29.7029 22.7666 29.71 23.3814C29.71 24.2507 29.5439 25.0705 29.2118 25.8408C28.8796 26.6111 28.4273 27.2825 27.8549 27.8549C27.2825 28.4273 26.6111 28.8796 25.8408 29.2118C25.0705 29.5439 24.2507 29.71 23.3814 29.71C22.7666 29.71 22.173 29.6252 21.6006 29.4556C21.0281 29.286 20.4946 29.0457 19.9999 28.7347C19.5052 28.4238 19.0564 28.0457 18.6536 27.6005C18.2508 27.1553 17.9186 26.6535 17.6571 26.0952H8V9.8127H11.6148V8H13.4275V9.8127H20.6677V8H22.4698V9.8127H26.0952V17.6571ZM9.8127 13.4275H24.2825V11.6148H9.8127V13.4275ZM17.1059 24.2825C17.0635 23.9857 17.0423 23.6853 17.0423 23.3814C17.0423 22.5051 17.2084 21.6818 17.5405 20.9115C17.8727 20.1412 18.325 19.4698 18.8974 18.8974C19.4698 18.325 20.1412 17.8727 20.9115 17.5405C21.6818 17.2084 22.5051 17.0423 23.3814 17.0423C23.6853 17.0423 23.9857 17.0635 24.2825 17.1059V15.2402H9.8127V24.2825H17.1059ZM23.3814 27.8973C24.0034 27.8973 24.5864 27.7807 25.1305 27.5475C25.6747 27.3143 26.1553 26.9892 26.5722 26.5722C26.9892 26.1553 27.3107 25.6782 27.5369 25.1411C27.763 24.604 27.8832 24.0175 27.8973 23.3814C27.8973 22.7595 27.7807 22.173 27.5475 21.6218C27.3143 21.0705 26.9927 20.59 26.5828 20.1801C26.1729 19.7702 25.6924 19.4486 25.1411 19.2154C24.5899 18.9822 24.0034 18.8621 23.3814 18.855C22.7525 18.855 22.1659 18.9716 21.6218 19.2048C21.0776 19.438 20.597 19.7631 20.1801 20.1801C19.7631 20.597 19.4416 21.0776 19.2154 21.6218C18.9893 22.1659 18.8691 22.7525 18.855 23.3814C18.855 24.0104 18.9716 24.597 19.2048 25.1411C19.438 25.6853 19.7631 26.1623 20.1801 26.5722C20.597 26.9821 21.0776 27.3037 21.6218 27.5369C22.1659 27.7701 22.7525 27.8902 23.3814 27.8973ZM24.2825 22.4698H26.0952V24.2825H22.4698V20.6677H24.2825V22.4698Z" fill="#0043FF"/>
</g>
<defs>
<clipPath id="clip0_9_1057">
<rect width="21.71" height="21.71" fill="white" transform="translate(8 8)"/>
</clipPath>
</defs>
</svg>
